<svg width="1200" height="750" viewBox="0 0 1200 750" fill="none" xmlns="http://www.w3.org/2000/svg">
  <defs>
    <linearGradient id="bg1" x1="0" y1="0" x2="1200" y2="750" gradientUnits="userSpaceOnUse">
      <stop stop-color="#0B1720"/>
      <stop offset="1" stop-color="#122A33"/>
    </linearGradient>
    <linearGradient id="panel1" x1="110" y1="120" x2="1090" y2="620" gradientUnits="userSpaceOnUse">
      <stop stop-color="#152933"/>
      <stop offset="1" stop-color="#0E1B23"/>
    </linearGradient>
  </defs>
  <rect width="1200" height="750" rx="36" fill="url(#bg1)"/>
  <rect x="48" y="46" width="1104" height="658" rx="28" fill="#08131A" stroke="#FFFFFF" stroke-opacity="0.08"/>
  <rect x="48" y="46" width="1104" height="84" rx="28" fill="#0D1B23" stroke="#FFFFFF" stroke-opacity="0.05"/>
  <circle cx="88" cy="88" r="8" fill="#FF5F57"/>
  <circle cx="112" cy="88" r="8" fill="#FEBC2E"/>
  <circle cx="136" cy="88" r="8" fill="#28C840"/>
  <rect x="178" y="74" width="132" height="28" rx="14" fill="#D77A61" fill-opacity="0.16"/>
  <rect x="340" y="74" width="280" height="28" rx="14" fill="#FFFFFF" fill-opacity="0.07"/>
  <rect x="930" y="70" width="176" height="36" rx="18" fill="#FFFFFF" fill-opacity="0.06"/>
  <rect x="78" y="168" width="194" height="24" rx="12" fill="#D77A61" fill-opacity="0.18"/>
  <rect x="78" y="210" width="420" height="48" rx="24" fill="#FFFFFF" fill-opacity="0.07"/>
  <rect x="520" y="210" width="200" height="48" rx="24" fill="#D77A61" fill-opacity="0.82"/>
  <rect x="740" y="210" width="360" height="48" rx="24" fill="#FFFFFF" fill-opacity="0.07"/>
  <rect x="78" y="288" width="504" height="270" rx="30" fill="url(#panel1)" stroke="#FFFFFF" stroke-opacity="0.08"/>
  <rect x="614" y="288" width="526" height="270" rx="30" fill="#0C1921" stroke="#FFFFFF" stroke-opacity="0.08"/>
  <rect x="108" y="336" width="176" height="22" rx="11" fill="#FFFFFF" fill-opacity="0.16"/>
  <rect x="108" y="376" width="320" height="18" rx="9" fill="#FFFFFF" fill-opacity="0.10"/>
  <rect x="108" y="408" width="276" height="18" rx="9" fill="#FFFFFF" fill-opacity="0.10"/>
  <rect x="108" y="452" width="390" height="58" rx="20" fill="#FFFFFF" fill-opacity="0.07"/>
  <rect x="644" y="332" width="206" height="18" rx="9" fill="#FFFFFF" fill-opacity="0.18"/>
  <circle cx="688" cy="402" r="56" fill="#D77A61" fill-opacity="0.23"/>
  <circle cx="860" cy="392" r="78" fill="#4E8DA3" fill-opacity="0.20"/>
  <circle cx="960" cy="468" r="62" fill="#D77A61" fill-opacity="0.18"/>
  <rect x="648" y="492" width="410" height="18" rx="9" fill="#FFFFFF" fill-opacity="0.08"/>
  <rect x="648" y="522" width="264" height="18" rx="9" fill="#FFFFFF" fill-opacity="0.08"/>
  <text x="78" y="160" fill="#B8D2D8" font-family="Arial, sans-serif" font-size="22" font-weight="700" letter-spacing="3">FIRST USE TOUR</text>
  <text x="108" y="372" fill="#F2FAFC" font-family="Arial, sans-serif" font-size="24" font-weight="700">Start a new itinerary from the homepage</text>
  <text x="108" y="408" fill="#AFC3C8" font-family="Arial, sans-serif" font-size="18">Switch clients, check status, and launch the workspace.</text>
  <text x="648" y="372" fill="#F2FAFC" font-family="Arial, sans-serif" font-size="24" font-weight="700">Active client and trip status</text>
  <text x="648" y="408" fill="#AFC3C8" font-family="Arial, sans-serif" font-size="18">The header stays tied to the current trip you are editing.</text>
</svg>
